<svg style="position: absolute; width: 0; height: 0; overflow: hidden;" version="1.1" xmlns="http://www.w3.org/2000/svg">
<defs>
<symbol id="icon-moon-inv" viewBox="0 0 30 32">
<title>moon-inv</title>
<path d="M22.592 21.504q3.36 0 6.56-1.792-1.344 4.64-5.184 7.616t-8.8 2.976q-6.016 0-10.304-4.288t-4.288-10.336q0-4.928 2.976-8.768t7.584-5.216q-1.792 3.2-1.792 6.56 0 5.504 3.904 9.376t9.344 3.872z"></path>
</symbol>
<symbol id="icon-cloud-flash" viewBox="0 0 33 32">
<title>cloud-flash</title>
<path d="M24.992 23.488q-0.672 0-1.184-0.48t-0.48-1.184 0.48-1.184 1.184-0.48q2.080 0 3.552-1.44t1.472-3.552-1.472-3.52-3.552-1.472q-0.704 0-1.344 0.192l-1.792 0.512-0.288-1.824q-0.448-2.4-2.272-3.968t-4.288-1.6q-2.752 0-4.736 1.952t-1.952 4.736q0 0.448 0.16 1.312l0.448 2.080-2.4-0.064q-1.28 0-2.24 0.96t-0.96 2.336q0 1.408 0.96 2.4t2.4 0.96q0.672 0 1.152 0.48t0.48 1.184-0.48 1.184-1.152 0.48q-2.752 0-4.736-1.952t-1.952-4.736q0-2.304 1.408-4.096t3.584-2.336v-0.192q0-4.128 2.944-7.072t7.072-2.944q3.232 0 5.792 1.856t3.616 4.832q3.616-0.288 6.272 2.208t2.624 6.112q0 3.456-2.432 5.888t-5.888 2.432zM17.728 16.8l-2.496 5.856 5.024 2.432-7.52 6.72 2.496-5.824-4.992-2.4z"></path>
</symbol>
<symbol id="icon-cloud" viewBox="0 0 33 32">
<title>cloud</title>
<path d="M24.992 27.68h-18.304q-2.752 0-4.736-1.952t-1.952-4.736q0-2.304 1.408-4.096t3.584-2.336v-0.256q0-4.16 2.944-7.072t7.072-2.912q3.2 0 5.76 1.856t3.648 4.864q3.68-0.288 6.272 2.176t2.624 6.112q0 3.424-2.432 5.888t-5.888 2.464zM6.528 17.632q-1.28 0-2.24 0.992t-0.96 2.368 0.96 2.336 2.4 0.992h18.304q2.080 0 3.552-1.472t1.472-3.52-1.472-3.552-3.552-1.472q-0.576 0-1.344 0.256l-1.792 0.512-0.288-1.824q-0.448-2.4-2.272-4t-4.288-1.568q-2.752 0-4.736 1.952t-1.952 4.672q0 0.48 0.16 1.376l0.416 1.984z"></path>
</symbol>
<symbol id="icon-cloud-rain" viewBox="0 0 33 32">
<title>cloud-rain</title>
<path d="M21.696 29.344q-0.704 0-1.184-0.512t-0.512-1.152v-10.016q0-0.672 0.512-1.184t1.184-0.512 1.152 0.512 0.48 1.184v10.016q0 0.672-0.48 1.152t-1.152 0.512zM11.68 29.344q-0.672 0-1.184-0.512t-0.48-1.152v-10.016q0-0.672 0.48-1.184t1.184-0.512 1.152 0.512 0.48 1.184v10.016q0 0.672-0.48 1.152t-1.152 0.512zM16.672 32.672q-0.672 0-1.184-0.512t-0.48-1.184v-9.984q0-0.704 0.48-1.184t1.184-0.48 1.184 0.48 0.48 1.184v9.984q0 0.704-0.48 1.184t-1.184 0.512zM6.688 22.656q-2.752 0-4.736-1.952t-1.952-4.736q0-2.304 1.408-4.096t3.584-2.336v-0.192q0-4.128 2.944-7.072t7.072-2.944q3.232 0 5.792 1.856t3.616 4.832q3.616-0.288 6.272 2.208t2.624 6.112q0 2.816-1.696 5.024t-4.384 2.976q-0.672 0.192-1.28-0.16t-0.8-0.992q-0.192-0.672 0.16-1.28t1.024-0.768q1.632-0.448 2.656-1.76t1.024-3.040q0-2.080-1.472-3.52t-3.552-1.472q-0.704 0-1.344 0.192l-1.792 0.512-0.288-1.824q-0.448-2.4-2.272-3.968t-4.288-1.6q-2.752 0-4.736 1.952t-1.952 4.736q0 0.448 0.16 1.312l0.416 2.016h-2.368q-1.28 0-2.24 0.96t-0.96 2.336q0 1.408 0.96 2.4t2.4 0.96q0.672 0 1.152 0.48t0.48 1.184-0.48 1.184-1.152 0.48z"></path>
</symbol>
<symbol id="icon-menu" viewBox="0 0 27 32">
<title>menu</title>
<path d="M27.424 24v2.272q0 0.48-0.32 0.8t-0.832 0.352h-25.12q-0.48 0-0.8-0.352t-0.352-0.8v-2.272q0-0.48 0.352-0.8t0.8-0.352h25.12q0.48 0 0.832 0.352t0.32 0.8zM27.424 14.848v2.304q0 0.448-0.32 0.8t-0.832 0.32h-25.12q-0.48 0-0.8-0.32t-0.352-0.8v-2.304q0-0.448 0.352-0.8t0.8-0.32h25.12q0.48 0 0.832 0.32t0.32 0.8zM27.424 5.728v2.272q0 0.448-0.32 0.8t-0.832 0.352h-25.12q-0.48 0-0.8-0.352t-0.352-0.8v-2.272q0-0.48 0.352-0.832t0.8-0.32h25.12q0.48 0 0.832 0.32t0.32 0.832z"></path>
</symbol>
<symbol id="icon-twitter" viewBox="0 0 39 32">
<title>twitter</title>
<path d="M0 28.384q0.96 0.096 1.92 0.096 5.632 0 10.048-3.456-2.624-0.032-4.704-1.6t-2.848-4q0.64 0.128 1.504 0.128 1.12 0 2.144-0.288-2.816-0.544-4.64-2.784t-1.856-5.12v-0.096q1.696 0.96 3.68 0.992-1.664-1.088-2.624-2.88t-0.992-3.84q0-2.176 1.12-4.064 3.008 3.744 7.36 5.952t9.28 2.496q-0.224-1.056-0.224-1.856 0-3.328 2.368-5.696t5.728-2.368q3.488 0 5.888 2.56 2.784-0.576 5.12-1.984-0.896 2.912-3.52 4.48 2.336-0.288 4.608-1.28-1.536 2.4-4 4.192v1.056q0 3.232-0.928 6.464t-2.88 6.208-4.64 5.28-6.432 3.68-8.096 1.344q-6.688 0-12.384-3.616z"></path>
</symbol>
<symbol id="icon-github-circled" viewBox="0 0 32 32">
<title>github-circled</title>
<path d="M0 15.968q0-3.264 1.28-6.208 2.528-5.952 8.48-8.48 2.944-1.28 6.208-1.28t6.208 1.28q5.888 2.496 8.48 8.48 1.28 3.040 1.28 6.208t-1.28 6.208q-2.592 6.016-8.48 8.544-2.944 1.28-6.208 1.28t-6.208-1.28q-5.952-2.56-8.48-8.544-1.28-2.944-1.28-6.208zM2.496 15.968q0 4.512 2.688 8.064 2.656 3.488 6.944 4.96v-2.56q0-1.92 1.28-2.784-0.64-0.032-1.504-0.224-1.632-0.288-2.784-1.024-2.912-1.76-2.912-6.368 0-2.4 1.6-4.096-0.736-1.888 0.16-4.096h0.64q0.32 0 0.8 0.16 1.248 0.384 2.784 1.408 1.952-0.512 3.84-0.512t3.872 0.512q1.248-0.832 2.336-1.28 1.024-0.384 1.472-0.32l0.384 0.032q0.864 2.208 0.16 4.096 1.6 1.696 1.6 4.096 0 3.584-1.76 5.408-0.96 1.024-2.528 1.6-1.312 0.48-2.912 0.608 1.312 0.928 1.312 2.784v2.56q4.128-1.472 6.816-5.024 2.624-3.52 2.624-8 0-2.72-1.056-5.248-1.024-2.432-2.88-4.288-1.792-1.792-4.288-2.848-2.56-1.088-5.216-1.088-2.624 0-5.248 1.088-2.4 1.024-4.288 2.848-1.792 1.856-2.88 4.288-1.056 2.528-1.056 5.248z"></path>
</symbol>
<symbol id="icon-reddit" viewBox="0 0 39 32">
<title>reddit</title>
<path d="M0 15.904q0-1.984 1.6-3.392t3.584-1.408 3.36 1.152h0.16q4.288-2.624 10.72-2.624l0.16-0.128 2.24-8.544 7.744 1.152q0 0.032 0.064 0.032 0.032 0 0-0.032 0.064-0.032 0.384-0.512t0.448-0.576q1.088-1.024 2.624-1.024 1.568 0 2.656 1.024t1.056 2.624-1.056 2.688-2.656 1.12q-1.824 0-2.784-1.248t-0.96-3.072q-0.064 0.032-3.104-0.416t-3.52-0.544h-0.096q-0.064 0.064-0.512 1.696t-0.96 3.488-0.576 2.048v0.096l0.16 0.128q2.304 0 4.736 0.64t4.16 1.856l0.096 0.064q0.032-0.032 0.064-0.032t0.064-0.032q0.8-0.576 1.152-0.8t0.928-0.416 1.376-0.192q2.176 0 3.712 1.536t1.536 3.744q0 1.504-0.832 2.752t-2.24 1.92q0 6.24-8.32 9.696-1.312 0.576-1.792 0.736-1.024 0.32-2.912 0.608t-2.976 0.288q-3.84 0-7.392-1.12-0.064-0.064-2.304-1.216-3.040-1.632-4.864-3.712t-1.856-4.992h-0.16q-1.056-0.544-1.888-1.6l-0.288-0.384q-0.48-0.864-0.608-1.472t-0.128-1.6zM1.088 16.288q0 2.112 1.824 3.584 0.16-1.888 1.536-3.712t3.232-3.232q-1.184-0.832-2.624-0.832-1.568 0-2.752 1.28t-1.216 2.912zM4.352 20.96q0 1.728 0.992 3.328t2.56 2.72 3.264 1.92 3.36 1.088q2.4 0.448 4.672 0.448 3.936 0 7.456-1.248t5.92-3.936h-0.096q0.96-1.216 1.376-2.208t0.416-2.304q0-1.728-0.832-3.296t-2.24-2.688-2.944-1.952-3.2-1.216q-2.72-0.736-5.792-0.736-2.368 0-4.832 0.576t-4.8 1.728-3.808 3.168-1.472 4.608zM10.304 18.624q0-1.184 0.736-1.92t1.888-0.704 1.984 0.704 0.8 1.92q0 1.152-0.8 1.92t-1.984 0.768-1.888-0.768-0.736-1.92zM11.456 23.872h1.408q0.8 1.44 2.56 2.176t3.552 0.768q1.856 0 3.52-0.768t2.688-2.176h1.312q-0.8 1.984-2.976 3.072t-4.544 1.088q-2.304 0-4.512-1.12t-3.008-3.040zM22.208 18.624q0-1.216 0.736-1.92t1.952-0.704q1.088 0 1.856 0.768t0.768 1.856-0.768 1.888-1.856 0.8q-1.184 0-1.92-0.768t-0.768-1.92zM30.368 3.648q0 1.12 0.8 1.92t1.92 0.8q1.152 0 1.888-0.8t0.736-1.92q0-1.088-0.768-1.856t-1.856-0.768-1.888 0.768-0.832 1.856zM30.816 12.64q1.76 1.152 3.040 2.944t1.792 3.84q1.888-1.376 1.888-3.072 0-1.856-1.12-3.2t-2.976-1.344q-1.44 0-2.624 0.832z"></path>
</symbol>
<symbol id="icon-pocket" viewBox="0 0 36 32">
<title>pocket</title>
<path d="M0.064 10.56q-0.224-6.88 0.384-8.64 0.128-0.288 0.288-0.512t0.448-0.384 0.448-0.32 0.544-0.32 0.544-0.256q4.352 0 12.352-0.064t10.528-0.064h3.008t1.76 0 1.792 0.096 1.44 0.192 1.056 0.32q0.512 0.288 0.864 0.768t0.512 0.928 0.256 1.28 0.064 1.344-0.032 1.6 0 1.6q0 6.624-0.736 10.464t-3.072 6.816q-2.24 2.816-5.28 4.48t-6.176 1.984-6.4-0.352-5.952-2.336-4.832-4.288-3.072-5.792q-0.48-1.664-0.736-8.544zM7.488 10.496q-0.832 0.896 0.48 2.848t3.328 3.968q0.064 0.064 1.248 1.28t1.728 1.664 1.504 1.12 1.824 0.928q0.352 0.096 0.704 0.096t0.64-0.032 0.608-0.224 0.512-0.224 0.512-0.384 0.384-0.32 0.384-0.352l0.096-0.096q0.288-0.288 1.92-1.792t2.752-2.592 2.176-2.528 1.12-2.4q-0.48-1.28-1.216-1.792t-1.632-0.288-1.792 0.832-1.888 1.536-1.792 1.792-1.568 1.632-1.184 1.056q-0.864-0.512-2.336-1.92t-2.624-2.624-2.336-2.048-1.76-0.448q-0.8 0.48-1.792 1.312z"></path>
</symbol>
<symbol id="icon-gplus" viewBox="0 0 38 32">
<title>gplus</title>
<path d="M0 26.176q0-2.784 2.848-4.96t6.88-2.176h1.728q-1.344-1.28-1.344-2.752 0-0.928 0.512-1.856-0.32 0.032-0.928 0.032-3.328 0-5.44-2.080t-2.112-5.12q0-2.912 2.624-5.088t5.984-2.176h9.92l-2.208 1.6h-3.136q1.504 0.576 2.368 2.176t0.832 3.552q0 2.976-2.816 5.184-1.184 0.928-1.536 1.472t-0.352 1.344q0 0.608 0.864 1.536t1.728 1.568q1.952 1.376 2.72 2.816t0.736 3.616q0 2.88-2.624 5.024t-7.104 2.112q-4.256 0-7.2-1.6t-2.944-4.224zM3.584 25.12q0 2.208 1.888 3.776t4.64 1.536q3.808 0 5.536-1.408t1.696-3.744q0-0.608-0.128-1.024-0.096-0.352-0.224-0.672t-0.384-0.608-0.448-0.512-0.608-0.512-0.672-0.48-0.8-0.576-0.832-0.544q-1.248-0.384-2.464-0.384-2.88-0.032-5.024 1.504t-2.176 3.648zM5.696 7.232q0.352 2.528 1.952 4.352t3.488 1.856q1.888 0.064 3.008-1.664t0.8-4.256-1.888-4.288-3.52-1.824-3.040 1.632-0.8 4.192zM23.456 8v-1.6h6.4v-6.4h1.6v6.4h6.432v1.6h-6.432v6.432h-1.6v-6.432h-6.4z"></path>
</symbol>
<symbol id="icon-linkedin" viewBox="0 0 33 32">
<title>linkedin</title>
<path d="M0 3.84q0-1.6 1.12-2.656t2.912-1.024q1.76 0 2.848 1.024 1.12 1.056 1.12 2.752 0 1.536-1.088 2.56-1.12 1.056-2.944 1.056h-0.032q-1.76 0-2.848-1.056t-1.088-2.656zM0.416 31.84v-21.376h7.104v21.376h-7.104zM11.456 31.84h7.104v-11.936q0-1.12 0.256-1.728 0.448-1.088 1.376-1.856t2.272-0.736q3.584 0 3.584 4.832v11.424h7.104v-12.256q0-4.736-2.24-7.2t-5.92-2.432q-4.128 0-6.432 3.552v0.064h-0.032l0.032-0.064v-3.040h-7.104q0.064 1.024 0.064 6.368t-0.064 15.008z"></path>
</symbol>
<symbol id="icon-rss-1" viewBox="0 0 32 32">
<title>rss-1</title>
<path d="M0 27.712q0-1.76 1.248-3.008t3.008-1.248 3.008 1.248 1.248 3.008q0 1.792-1.248 3.040t-3.008 1.216-3.008-1.248-1.248-3.008zM0 16.992v-6.112q5.728 0 10.592 2.816t7.712 7.712 2.816 10.592h-6.144q0-6.208-4.384-10.592-4.416-4.416-10.592-4.416zM0 6.144v-6.144q6.496 0 12.416 2.528t10.208 6.848 6.848 10.208 2.528 12.416h-6.144q0-5.248-2.048-10.048t-5.504-8.256-8.256-5.504-10.048-2.048z"></path>
</symbol>
<symbol id="icon-quora" viewBox="0 0 28 32">
<title>quora</title>
<path d="M0 14.432q0-3.904 1.92-7.232t5.152-5.28 7.136-1.92q5.888 0 10.080 4.224t4.16 10.208q0 3.808-1.824 7.040t-4.928 5.216q0.032 0.064 0.128 0.192t0.352 0.544 0.672 0.704 1.056 0.672 1.44 0.544v2.432q-1.152 0.224-2.144 0.224-1.6 0-2.72-0.576-1.792-0.928-2.912-3.008-1.536 0.416-3.36 0.416-3.84 0-7.104-1.952t-5.184-5.248-1.92-7.2zM7.072 16.32q0 3.712 2.144 6.336t5.12 2.656q0.832 0 1.664-0.256-0.064-0.096-0.16-0.288t-0.48-0.576-0.736-0.768-0.992-0.608-1.184-0.32v-2.816q0.32-0.032 0.64-0.032 3.808 0 6.496 2.88 2.016-2.592 2.016-6.208v-3.712q0-3.712-2.112-6.368t-5.152-2.624-5.12 2.624-2.144 6.368v3.712z"></path>
</symbol>
<symbol id="icon-stackoverflow" viewBox="0 0 25 32">
<title>stackoverflow</title>
<path d="M0 32v-13.344l2.432 0.032-0.096 10.72h16.032v-10.688h2.528v13.28h-20.896zM3.936 24.992h12.544v2.656h-12.544v-2.656zM3.968 22.912l0.256-2.72 12.576 1.216-0.256 2.72zM4.64 17.376l0.736-2.624 12.16 3.424-0.768 2.624zM6.912 10.944l1.408-2.336 10.816 6.528-1.44 2.336zM12.256 4.384l2.208-1.6 7.36 10.272-2.24 1.6zM20.32 0.448l2.688-0.448 2.080 12.448-2.688 0.448z"></path>
</symbol>
<symbol id="icon-mail" viewBox="0 0 44 32">
<title>mail</title>
<path d="M3.36 0.16h36.864q1.376 0 2.368 0.992t0.992 2.368v25.12q0 1.408-0.992 2.4t-2.368 0.96h-36.864q-1.376 0-2.368-0.96t-0.992-2.4v-25.12q0-1.376 0.992-2.368t2.368-0.992zM5.568 5.184l16.224 13.536 16.224-13.536h-32.448zM5.024 26.976h33.536v-17.856l-15.808 13.184h-1.952l-15.776-13.184v17.856z"></path>
</symbol>
<symbol id="icon-cc" viewBox="0 0 32 32">
<title>cc</title>
<path d="M0 16q0-3.136 1.216-6.112 1.184-2.88 3.52-5.216 4.608-4.672 11.232-4.672 6.688 0 11.424 4.672 2.272 2.272 3.424 5.184 1.184 2.848 1.184 6.144 0 3.328-1.152 6.144-1.152 2.848-3.424 5.088-2.368 2.304-5.312 3.552-3.008 1.216-6.144 1.216-3.104 0-6.080-1.216-2.848-1.184-5.184-3.52t-3.52-5.184-1.184-6.080zM2.88 16q0 2.528 1.024 4.96 0.992 2.4 2.912 4.256 1.92 1.92 4.256 2.848 2.304 0.992 4.96 0.992 2.592 0 4.992-0.992 2.368-0.992 4.352-2.88 3.744-3.648 3.744-9.184 0-2.72-0.992-5.024-0.96-2.432-2.816-4.224-3.84-3.872-9.28-3.872-5.472 0-9.216 3.84-1.888 1.888-2.912 4.288-1.024 2.432-1.024 4.992zM6.88 16q0-2.272 1.344-3.616 1.312-1.344 3.36-1.344 2.944 0 4.256 2.304l-2.144 1.12q-0.352-0.768-0.864-0.992-0.48-0.288-0.928-0.288-2.144 0-2.144 2.816 0 1.248 0.544 2.048 0.576 0.768 1.6 0.768 1.408 0 1.984-1.344l1.984 0.992q-0.672 1.152-1.76 1.824-1.12 0.672-2.464 0.672-2.144 0-3.456-1.312t-1.312-3.648zM16.128 16q0-2.272 1.344-3.616t3.36-1.344q2.976 0 4.224 2.304l-2.112 1.12q-0.352-0.736-0.832-0.992-0.544-0.288-0.96-0.288-2.144 0-2.144 2.816 0 1.312 0.544 2.048 0.544 0.768 1.6 0.768 1.376 0 1.952-1.344l2.016 0.992q-0.704 1.184-1.792 1.824-1.12 0.672-2.4 0.672-2.208 0-3.488-1.312-1.312-1.312-1.312-3.648z"></path>
</symbol>
<symbol id="icon-bitbucket" viewBox="0 0 28 32">
<title>bitbucket</title>
<path d="M0 4.608q0-1.92 4.064-3.264t9.792-1.344q5.76 0 9.824 1.344t4.032 3.264q0 0.384-2.304 14.080-0.288 1.472-3.552 2.848t-8 1.376-8-1.376-3.52-2.848q-2.336-13.248-2.336-14.080zM3.424 23.2v-0.128q0-0.544 0.48-0.544 0.192 0 0.384 0.16 1.504 1.184 3.904 1.856t4.032 0.736l1.632 0.096q0.256 0 0.704-0.032t1.664-0.16 2.4-0.384 2.496-0.8 2.336-1.312l0.352-0.16q0.512 0 0.512 0.544 0 0.064-0.032 0.128-0.704 3.872-0.96 5.152-0.352 1.568-3.072 2.624t-6.4 1.024-6.4-1.024-3.040-2.624q-0.608-3.040-0.992-5.152zM4.992 4.128q0 0.768 2.624 1.312t6.24 0.576q3.68 0 6.304-0.544t2.592-1.312q0-0.8-2.592-1.376t-6.304-0.544-6.272 0.544-2.592 1.344zM9.44 15.424q0 1.824 1.312 3.104t3.104 1.312 3.136-1.312 1.28-3.104-1.28-3.136-3.136-1.28-3.104 1.28-1.312 3.136zM11.648 15.424q0 0.896 0.64 1.536t1.568 0.672 1.568-0.672 0.64-1.536-0.64-1.568-1.568-0.64-1.568 0.64-0.64 1.568z"></path>
</symbol>
<symbol id="icon-at" viewBox="0 0 25 32">
<title>at</title>
<path d="M24.64 9.664c0.512 1.312 0.8 2.784 0.8 4.416 0 2.176-0.544 4.256-1.472 5.824-1.248 1.952-3.008 2.944-5.216 2.944-0.864 0-1.664-0.224-2.24-0.672-0.384-0.288-0.736-0.672-0.96-1.152-0.832 1.056-2.176 1.76-3.616 1.76-1.664 0-3.040-0.608-3.936-1.856-0.864-1.12-1.312-2.688-1.312-4.512s0.512-3.52 1.568-4.736c1.056-1.312 2.624-2.016 4.512-2.016 1.12 0 2.144 0.48 2.88 1.184l0.224-0.832h2.72l-0.544 8.288c-0.032 0.672 0.032 1.152 0.288 1.376 0.096 0.16 0.32 0.256 0.64 0.256 2.432 0 3.264-3.936 3.264-5.856 0-2.304-0.768-4.224-2.144-5.632-1.6-1.632-3.904-2.432-6.688-2.432-2.688 0-5.056 0.832-6.848 2.432-2.080 1.888-3.232 4.576-3.232 7.84 0 2.752 0.992 5.28 2.72 7.072 1.664 1.696 3.904 2.624 6.56 2.624 3.040 0 5.344-0.448 7.712-1.504l0.48-0.224v3.072l-0.192 0.096c-2.208 1.088-4.8 1.6-8.032 1.6-3.456 0-6.4-1.056-8.608-3.104-2.592-2.336-3.968-5.856-3.968-9.856 0-3.808 1.28-7.040 3.712-9.408 1.216-1.152 2.656-2.080 4.256-2.688 1.664-0.672 3.488-0.992 5.408-0.992 3.616 0 6.88 1.184 9.056 3.392 0.96 0.928 1.728 2.048 2.208 3.296zM12.352 19.808c0.96 0 1.728-0.448 2.208-1.28 0.448-0.8 0.576-1.952 0.576-2.72 0-0.992-0.224-1.792-0.544-2.368-0.416-0.64-1.056-0.896-1.92-0.896-0.896 0-1.6 0.384-2.016 1.216-0.416 0.704-0.608 1.696-0.608 2.656 0 1.024 0.224 3.392 2.304 3.392z"></path>
</symbol>
<symbol id="icon-rain-inv" viewBox="0 0 32 32">
<title>rain-inv</title>
<path d="M0 11.008q0-2.88 2.048-4.928t4.96-2.080q0.544 0 0.992 0.064 1.376-1.952 3.488-2.976 2.176-1.056 4.512-1.056t4.48 1.056q2.112 1.024 3.52 2.976 0.416-0.064 0.992-0.064 2.88 0 4.928 2.080t2.048 4.928-2.048 4.928-4.928 2.080q-1.344 0-2.496-0.448-2.816 2.432-6.496 2.432t-6.496-2.432q-1.184 0.448-2.496 0.448-2.88 0-4.96-2.080t-2.048-4.928zM5.984 24q0-1.12 2.016-4l0.512 0.768q0.544 0.832 0.992 1.728 0.48 1.024 0.48 1.504 0 0.8-0.576 1.408t-1.408 0.608-1.408-0.608-0.608-1.408zM14.048 30.016q0-1.12 2.016-4l0.48 0.736q0.576 0.864 1.024 1.76 0.48 1.024 0.48 1.504 0 0.8-0.576 1.408t-1.408 0.576-1.408-0.576-0.608-1.408zM21.984 28q0-1.12 2.016-4l0.48 0.768q0.576 0.832 0.992 1.728 0.512 1.024 0.512 1.504 0 0.8-0.576 1.408t-1.408 0.608-1.408-0.608-0.608-1.408z"></path>
</symbol>
<symbol id="icon-flash" viewBox="0 0 18 32">
<title>flash</title>
<path d="M0 16.16l12.384-14.944q0.096-0.128 0.288-0.128t0.288 0.096q0.192 0.16 0.128 0.416l-3.328 10.976 8.288 3.328-12.32 14.88q-0.096 0.128-0.288 0.16t-0.288-0.096q-0.224-0.192-0.128-0.416l3.328-11.008z"></path>
</symbol>
<symbol id="icon-mail-alt" viewBox="0 0 32 32">
<title>mail-alt</title>
<path d="M32 12.672v14.176q0 1.184-0.832 2.016t-2.016 0.864h-26.304q-1.152 0-2.016-0.864t-0.832-2.016v-14.176q0.8 0.864 1.792 1.568 6.464 4.384 8.896 6.144 1.024 0.768 1.632 1.184t1.696 0.864 1.952 0.416h0.064q0.896 0 1.952-0.416t1.696-0.864 1.632-1.184q3.040-2.176 8.896-6.144 1.024-0.704 1.792-1.568zM32 7.424q0 1.408-0.864 2.688t-2.176 2.208q-6.72 4.672-8.384 5.792-0.16 0.128-0.736 0.544t-0.96 0.704-0.928 0.576-1.024 0.48-0.896 0.16h-0.064q-0.384 0-0.864-0.16t-1.024-0.48-0.96-0.576-0.96-0.704-0.736-0.544q-1.632-1.12-4.704-3.232t-3.648-2.56q-1.12-0.736-2.080-2.048t-0.992-2.464q0-1.376 0.736-2.304t2.112-0.928h26.304q1.152 0 2.016 0.832t0.832 2.016z"></path>
</symbol>
<symbol id="icon-gitlab" viewBox="0 0 32 32">
<title>gitlab</title>
<path d="M1.856 12.608l14.144 18.112-15.488-11.232q-0.32-0.224-0.448-0.608t0-0.768l1.792-5.504zM10.112 12.608h11.776l-5.888 18.112zM6.56 1.664l3.552 10.944h-8.256l3.552-10.944q0.128-0.384 0.576-0.384t0.576 0.384zM30.144 12.608l1.792 5.504q0.128 0.384 0 0.768t-0.448 0.608l-15.488 11.232 14.144-18.112zM30.144 12.608h-8.256l3.552-10.944q0.128-0.384 0.576-0.384t0.608 0.384z"></path>
</symbol>
<symbol id="icon-db-shape" viewBox="0 0 29 32">
<title>db-shape</title>
<path d="M14.4 1.6q8.832 0 11.616 2.816t2.784 11.584q0 8.832-2.784 11.616t-11.616 2.784q-8.768 0-11.584-2.784t-2.816-11.616q0-8.768 2.816-11.584t11.584-2.816z"></path>
</symbol>
</defs>
</svg>
