<svg style="position: absolute; width: 0; height: 0; overflow: hidden;" version="1.1" xmlns="http://www.w3.org/2000/svg">
<defs>
<symbol id="icon-twitter" viewBox="0 0 32 32">
<title>twitter</title>
<path d="M32 6.076c-1.18 0.52-2.44 0.874-3.77 1.034 1.354-0.814 2.396-2.1 2.886-3.632-1.268 0.74-2.674 1.28-4.17 1.58-1.196-1.28-2.9-2.080-4.792-2.080-3.624 0-6.564 2.94-6.564 6.56 0 0.52 0.060 1.020 0.17 1.5-5.456-0.26-10.294-2.88-13.532-6.84-0.568 0.962-0.888 2.082-0.888 3.302 0 2.28 1.16 4.286 2.92 5.464-1.076-0.034-2.090-0.33-2.974-0.82v0.080c0 3.18 2.26 5.836 5.266 6.44-0.552 0.148-1.132 0.228-1.73 0.228-0.42 0-0.82-0.040-1.22-0.116 0.84 2.608 3.26 4.506 6.14 4.56-2.24 1.76-5.080 2.808-8.14 2.808-0.52 0-1.040-0.030-1.56-0.090 2.92 1.86 6.36 2.948 10.080 2.948 12.080 0 18.68-10 18.68-18.66 0-0.28 0-0.56-0.020-0.84 1.28-0.92 2.4-2.080 3.28-3.4z"></path>
</symbol>
<symbol id="icon-facebook" viewBox="0 0 32 32">
<path d="M29 0h-26c-1.65 0-3 1.35-3 3v26c0 1.65 1.35 3 3 3h13v-14h-4v-4h4v-2c0-3.306 2.694-6 6-6h4v4h-4c-1.1 0-2 0.9-2 2v2h6l-1 4h-5v14h9c1.65 0 3-1.35 3-3v-26c0-1.65-1.35-3-3-3z"></path>
</symbol>
<symbol id="icon-github" viewBox="0 0 32 32">
<title>github</title>
<path d="M16 0c-8.84 0-16 7.164-16 16 0 7.070 4.584 13.066 10.94 15.18 0.8 0.15 1.094-0.344 1.094-0.77 0-0.38-0.014-1.386-0.020-2.72-4.452 0.966-5.39-2.146-5.39-2.146-0.728-1.848-1.78-2.34-1.78-2.34-1.45-0.992 0.112-0.972 0.112-0.972 1.606 0.112 2.45 1.648 2.45 1.648 1.428 2.446 3.746 1.74 4.66 1.33 0.144-1.034 0.556-1.74 1.014-2.14-3.554-0.4-7.288-1.776-7.288-7.906 0-1.746 0.62-3.174 1.646-4.294-0.18-0.404-0.72-2.030 0.14-4.234 0 0 1.34-0.43 4.4 1.64 1.28-0.356 2.64-0.532 4-0.54 1.36 0.008 2.72 0.184 4 0.54 3.040-2.070 4.38-1.64 4.38-1.64 0.86 2.204 0.32 3.83 0.16 4.234 1.020 1.12 1.64 2.548 1.64 4.294 0 6.146-3.74 7.5-7.3 7.894 0.56 0.48 1.080 1.46 1.080 2.96 0 2.14-0.020 3.86-0.020 4.38 0 0.42 0.28 0.92 1.1 0.76 6.402-2.098 10.982-8.098 10.982-15.158 0-8.836-7.164-16-16-16z"></path>
</symbol>
<symbol id="icon-gitlab" viewBox="0 0 28 28">
<path d="M1.625 11.031l12.375 15.859-13.563-9.844c-0.375-0.281-0.531-0.766-0.391-1.203l1.578-4.813zM8.844 11.031h10.313l-5.156 15.859zM5.75 1.469l3.094 9.562h-7.219l3.094-9.562c0.172-0.484 0.859-0.484 1.031 0zM26.375 11.031l1.578 4.813c0.141 0.438-0.016 0.922-0.391 1.203l-13.563 9.844 12.375-15.859zM26.375 11.031h-7.219l3.094-9.562c0.172-0.484 0.859-0.484 1.031 0z"></path>
</symbol>
<symbol id="icon-bitbucket" viewBox="0 0 32 32">
<title>bitbucket</title>
<path d="M16 0c-7.626 0-13.89 2.040-13.89 4.63 0 0.68 1.634 10.348 2.316 14.16 0.272 1.772 4.766 4.22 11.574 4.22s11.166-2.448 11.574-4.22c0.68-3.812 2.316-13.48 2.316-14.16-0.136-2.59-6.264-4.63-13.89-4.63zM16 19.88c-2.452 0-4.36-1.906-4.36-4.356 0-2.452 1.908-4.36 4.36-4.36s4.36 1.908 4.36 4.36c0 2.316-1.91 4.356-4.36 4.356zM16 5.992c-4.9 0-8.852-0.82-8.852-1.906 0-1.090 3.95-1.908 8.852-1.908 4.9 0 8.852 0.8 8.852 1.9 0 1.080-3.95 1.9-8.852 1.9z"></path>
<path d="M25.94 22.468c-0.272 0-0.408 0.136-0.408 0.136s-3.404 2.724-9.532 2.724-9.532-2.724-9.532-2.724-0.272-0.136-0.408-0.136c-0.272 0-0.546 0.136-0.546 0.544v0.136c0.546 2.86 0.954 4.904 0.954 5.176 0.408 2.040 4.492 3.676 9.396 3.676 4.9 0 8.988-1.634 9.396-3.676 0-0.272 0.408-2.316 0.952-5.176v-0.136c0.136-0.272 0-0.544-0.272-0.544z"></path>
<path d="M18.178 15.388c0 1.203-0.975 2.178-2.178 2.178s-2.178-0.975-2.178-2.178c0-1.203 0.975-2.178 2.178-2.178s2.178 0.975 2.178 2.178z"></path>
</symbol>
<symbol id="icon-reddit" viewBox="0 0 32 32">
<title>reddit</title>
<path d="M2.946 18.736c-0.080 0.37-0.12 0.748-0.12 1.132 0 4.6 5.88 8.346 13.108 8.346 7.226 0 13.106-3.744 13.106-8.346 0-0.366-0.040-0.728-0.11-1.080l-0.020-0.044c-0.026-0.072-0.040-0.146-0.040-0.22-0.4-1.568-1.49-2.994-3.066-4.144-0.060-0.020-0.116-0.052-0.168-0.094-0.034-0.026-0.060-0.056-0.088-0.086-2.396-1.648-5.82-2.68-9.614-2.68-3.76 0-7.152 1.012-9.544 2.63-0.020 0.024-0.040 0.046-0.066 0.066-0.052 0.044-0.112 0.080-0.174 0.1-1.61 1.152-2.728 2.586-3.144 4.172 0 0.076-0.020 0.154-0.050 0.228l-0.010 0.020zM16 26.006c-2.396 0-4.084-0.52-5.16-1.6-0.232-0.232-0.232-0.61 0-0.844 0.234-0.22 0.614-0.22 0.848 0 0.84 0.84 2.25 1.26 4.31 1.26s3.46-0.4 4.3-1.24c0.22-0.22 0.6-0.22 0.84 0 0.22 0.24 0.22 0.62 0 0.86-1.080 1.080-2.76 1.6-5.16 1.6zM11.184 15.89c-1.22 0-2.24 1.020-2.24 2.24 0 1.216 1.020 2.204 2.24 2.204s2.206-0.988 2.206-2.204c0-1.22-0.988-2.24-2.206-2.24zM20.844 15.89c-1.22 0-2.24 1.020-2.24 2.24 0 1.216 1.020 2.204 2.24 2.204s2.206-0.988 2.206-2.204c0-1.22-0.988-2.24-2.206-2.24zM26.92 13.76c1.386 1.112 2.404 2.432 2.924 3.88 0.6-0.45 0.96-1.156 0.96-1.936 0-1.34-1.090-2.428-2.428-2.428-0.534 0-1.040 0.174-1.456 0.486zM3.624 13.28c-1.34 0-2.428 1.090-2.428 2.428 0 0.726 0.32 1.4 0.86 1.854 0.536-1.44 1.564-2.74 2.956-3.84-0.404-0.28-0.886-0.44-1.388-0.44zM15.934 29.414c-7.888 0-14.304-4.28-14.304-9.54 0-0.366 0.032-0.726 0.092-1.080-1.060-0.66-1.72-1.82-1.72-3.090 0-2 1.64-3.624 3.64-3.624 0.9 0 1.74 0.328 2.4 0.91 2.48-1.592 5.82-2.594 9.5-2.66l2.42-7.38 0.54 0.126s0.020 0 0.020 0.004l5.64 1.326c0.46-1.066 1.52-1.816 2.76-1.816 1.64 0 2.98 1.34 2.98 2.984 0 1.646-1.34 2.984-2.98 2.984s-2.98-1.34-2.98-2.98l-5.142-1.218-1.96 5.98c3.54 0.14 6.74 1.14 9.14 2.7 0.66-0.62 1.528-0.96 2.45-0.96 2 0 3.628 1.62 3.628 3.62 0 1.32-0.72 2.52-1.84 3.16 0.040 0.34 0.080 0.66 0.080 1-0.020 5.26-6.42 9.54-14.32 9.54zM26.86 3.786c-0.988 0-1.79 0.8-1.79 1.788 0 0.986 0.8 1.788 1.788 1.788 0.98 0 1.78-0.8 1.78-1.78s-0.8-1.78-1.8-1.78z"></path>
</symbol>
<symbol id="icon-linkedin" viewBox="0 0 32 32">
<title>linkedin</title>
<path d="M27.264 27.27h-4.74v-7.426c0-1.772-0.036-4.050-2.468-4.050-2.47 0-2.848 1.928-2.848 3.92v7.556h-4.74v-15.27h4.552v2.080h0.060c0.636-1.2 2.184-2.466 4.494-2.466 4.8 0 5.69 3.16 5.69 7.274v8.376zM7.116 9.91c-1.524 0-2.752-1.234-2.752-2.754 0-1.516 1.228-2.75 2.752-2.75 1.52 0 2.752 1.234 2.752 2.75 0 1.52-1.234 2.754-2.752 2.754zM9.492 27.27h-4.752v-15.27h4.752v15.27zM29.632 0h-27.272c-1.304 0-2.36 1.032-2.36 2.306v27.388c0 1.274 1.056 2.306 2.36 2.306h27.27c1.304 0 2.37-1.032 2.37-2.306v-27.388c0-1.274-1.066-2.306-2.37-2.306z"></path>
</symbol>
<symbol id="icon-googleplus" viewBox="0 0 32 32">
<title>googleplus</title>
<path d="M10.18 14.546v3.49h5.78c-0.232 1.5-1.746 4.394-5.774 4.394-3.474 0-6.31-2.88-6.31-6.43s2.83-6.43 6.304-6.43c1.98 0 3.304 0.844 4.060 1.572l2.764-2.66c-1.774-1.66-4.074-2.66-6.82-2.66-5.634-0.002-10.184 4.558-10.184 10.178s4.552 10.18 10.18 10.18c5.88 0 9.776-4.13 9.776-9.948 0-0.668-0.072-1.18-0.16-1.686h-9.616zM32 14.546h-2.91v-2.91h-2.91v2.91h-2.908v2.908h2.91v2.91h2.92v-2.91h2.898z"></path>
</symbol>
<symbol id="icon-pocket" viewBox="0 0 32 32">
<title>pocket</title>
<path d="M25.066 13.68l-7.526 7.22c-0.426 0.408-0.972 0.612-1.52 0.612-0.546 0-1.094-0.204-1.52-0.612l-7.524-7.22c-0.874-0.836-0.9-2.226-0.064-3.1 0.84-0.876 2.228-0.904 3.1-0.066l6.010 5.76 6.020-5.76c0.88-0.84 2.26-0.81 3.1 0.064 0.84 0.86 0.82 2.26-0.060 3.1zM31.842 3.624c-0.4-1.144-1.5-1.912-2.72-1.912h-26.222c-1.2 0-2.288 0.752-2.714 1.872-0.126 0.332-0.19 0.68-0.19 1.030v9.656l0.11 1.92c0.464 4.368 2.73 8.184 6.24 10.846 0.060 0.048 0.126 0.094 0.19 0.14l0.040 0.030c1.88 1.374 3.984 2.304 6.256 2.764 1.048 0.21 2.12 0.32 3.184 0.32 0.984 0 1.972-0.092 2.944-0.272 0.116-0.040 0.232-0.060 0.35-0.080 0.032 0 0.066-0.020 0.1-0.040 2.176-0.48 4.196-1.38 6.008-2.7l0.040-0.040 0.18-0.14c3.5-2.66 5.76-6.48 6.24-10.86l0.1-1.92v-9.638c0-0.334-0.040-0.666-0.16-0.99z"></path>
</symbol>
<symbol id="icon-quora" viewBox="0 0 32 32">
<title>quora</title>
<path d="M16.98 24.952c-1.108-2.18-2.408-4.386-4.946-4.386-0.484 0-0.97 0.080-1.414 0.28l-0.86-1.72c1.048-0.904 2.746-1.62 4.928-1.62 3.394 0 5.136 1.64 6.52 3.724 0.82-1.78 1.208-4.188 1.208-7.17 0-7.448-2.328-11.272-7.768-11.272-5.36 0-7.68 3.824-7.68 11.272 0 7.408 2.32 11.192 7.68 11.192 0.852 0 1.624-0.092 2.332-0.3zM18.31 27.552c-1.176 0.314-2.424 0.488-3.66 0.488-7.14 0-14.13-5.696-14.13-13.98 0-8.36 6.988-14.060 14.128-14.060 7.26 0 14.18 5.656 14.18 14.060 0 4.674-2.18 8.472-5.35 10.928 1.020 1.534 2.060 2.554 3.54 2.554 1.6 0 2.24-1.22 2.36-2.2h2.080c0.12 1.3-0.54 6.68-6.36 6.68-3.54 0-5.4-2.040-6.8-4.44z"></path>
</symbol>
<symbol id="icon-rss" viewBox="0 0 32 32">
<title>rss</title>
<path d="M25.6 32c0-14.044-11.556-25.6-25.6-25.6v-6.4c17.554 0 32 14.446 32 32h-6.4zM4.388 23.22c2.42 0 4.39 1.97 4.39 4.392 0 2.42-1.98 4.388-4.4 4.388-2.418 0-4.378-1.966-4.378-4.388 0-2.42 1.966-4.39 4.388-4.39zM21.212 32h-6.22c0-8.226-6.766-14.994-14.992-14.994v-6.22c11.636 0 21.212 9.58 21.212 21.214z"></path>
</symbol>
<symbol id="icon-rss-squared" viewBox="0 0 32 32">
<path d="M29 0h-26c-1.65 0-3 1.35-3 3v26c0 1.65 1.35 3 3 3h26c1.65 0 3-1.35 3-3v-26c0-1.65-1.35-3-3-3zM8.719 25.975c-1.5 0-2.719-1.206-2.719-2.706 0-1.488 1.219-2.712 2.719-2.712 1.506 0 2.719 1.225 2.719 2.712 0 1.5-1.219 2.706-2.719 2.706zM15.544 26c0-2.556-0.994-4.962-2.794-6.762-1.806-1.806-4.2-2.8-6.75-2.8v-3.912c7.425 0 13.475 6.044 13.475 13.475h-3.931zM22.488 26c0-9.094-7.394-16.5-16.481-16.5v-3.912c11.25 0 20.406 9.162 20.406 20.413h-3.925z"></path>
</symbol>
<symbol id="icon-ruby" viewBox="0 0 32 32">
<title>ruby</title>
<path d="M26.874 0.112c4.046 0.7 5.19 3.464 5.106 6.36l0.020-0.040-1.82 23.85-23.64 1.62c-1.964-0.082-6.34-0.262-6.54-6.382l2.192-4 4.43 10.344 3.74-12.192-0.040 0.010 0.020-0.040 12.34 3.94-1.86-7.24-1.32-5.2 11.76-0.76-0.82-0.68-8.442-6.882 4.88-2.72zM0 25.452v0.036-0.040zM6.84 6.766c4.748-4.71 10.876-7.494 13.228-5.12 2.35 2.37-0.14 8.14-4.896 12.848-4.752 4.71-10.804 7.646-13.152 5.276-2.354-2.37 0.060-8.29 4.816-13z"></path>
</symbol>
<symbol id="icon-ruby-colored" viewBox="0 0 32 32">
<path fill="#cc342d" style="fill: var(--color1, #cc342d)" d="M26.875 0.111c4.044 0.7 5.191 3.464 5.105 6.36l0.020-0.041-1.82 23.851-23.639 1.621c-1.964-0.083-6.341-0.263-6.541-6.383l2.193-4 4.429 10.344 3.74-12.192-0.040 0.009 0.021-0.040 12.34 3.941-1.861-7.241-1.32-5.2 11.76-0.759-0.82-0.68-8.443-6.883 4.879-2.721zM0 25.452v0.035-0.039zM6.84 6.764c4.748-4.711 10.876-7.495 13.229-5.12 2.349 2.369-0.14 8.14-4.897 12.848-4.751 4.709-10.804 7.645-13.152 5.276-2.355-2.369 0.060-8.289 4.816-13z"></path>
</symbol>
<symbol id="icon-slack" viewBox="0 0 32 32">
<title>slack</title>
<path d="M13.172 14.66l1.38 4.114 4.274-1.432-1.38-4.1-4.274 1.44z"></path>
<path d="M25.1 18.74l-2.074 0.694 0.72 2.146c0.29 0.868-0.18 1.808-1.048 2.1-0.2 0.060-0.38 0.090-0.58 0.084-0.68-0.020-1.3-0.452-1.54-1.132l-0.72-2.144-4.28 1.432 0.72 2.144c0.28 0.87-0.18 1.81-1.060 2.1-0.2 0.064-0.38 0.090-0.58 0.086-0.68-0.020-1.3-0.452-1.54-1.132l-0.72-2.16-2.080 0.7c-0.2 0.060-0.38 0.080-0.58 0.080-0.68-0.020-1.3-0.46-1.54-1.14-0.3-0.88 0.18-1.82 1.040-2.1l2.080-0.7-1.318-4.118-2.068 0.7c-0.188 0.064-0.38 0.090-0.57 0.086-0.66-0.020-1.3-0.45-1.52-1.13-0.28-0.866 0.18-1.806 1.060-2.1l2.080-0.692-0.72-2.14c-0.28-0.872 0.18-1.812 1.060-2.1 0.88-0.294 1.82 0.18 2.1 1.044l0.72 2.144 4.258-1.432-0.72-2.14c-0.28-0.86 0.18-1.8 1.052-2.1 0.87-0.28 1.812 0.18 2.1 1.056l0.72 2.16 2.074-0.68c0.868-0.292 1.808 0.18 2.1 1.040 0.29 0.872-0.18 1.812-1.046 2.1l-2.076 0.7 1.38 4.114 2.068-0.688c0.87-0.28 1.81 0.18 2.1 1.060 0.292 0.88-0.18 1.82-1.040 2.1zM30.66 11.6c-3.3-10.992-8.064-13.56-19.060-10.26-10.992 3.3-13.56 8.060-10.26 19.060 3.3 10.994 8.060 13.56 19.060 10.26 10.994-3.3 13.56-8.060 10.26-19.060z"></path>
</symbol>
<symbol id="icon-stackoverflow" viewBox="0 0 32 32">
<title>stackoverflow</title>
<path d="M25.316 29.154v-8.54h2.846v11.386h-25.702v-11.386h2.84v8.54h20.012zM8.15 26.308h14.32v-2.848h-14.32v2.848zM8.496 19.838l13.974 2.92 0.6-2.76-13.97-2.918-0.604 2.76zM10.308 13.098l12.94 6.040 1.204-2.6-12.94-6.040-1.204 2.58zM13.928 6.718l10.956 9.14 1.812-2.16-10.956-9.138-1.8 2.156zM21.004 0l-2.328 1.726 8.54 11.47 2.328-1.724-8.544-11.472z"></path>
</symbol>
<symbol id="icon-mail" viewBox="0 0 32 32">
<title>mail</title>
<path d="M32 12.672v14.176q0 1.184-0.832 2.016t-2.016 0.864h-26.304q-1.152 0-2.016-0.864t-0.832-2.016v-14.176q0.8 0.864 1.792 1.568 6.464 4.384 8.896 6.144 1.024 0.768 1.632 1.184t1.696 0.864 1.952 0.416h0.064q0.896 0 1.952-0.416t1.696-0.864 1.632-1.184q3.040-2.176 8.896-6.144 1.024-0.704 1.792-1.568zM32 7.424q0 1.408-0.864 2.688t-2.176 2.208q-6.72 4.672-8.384 5.792-0.16 0.128-0.736 0.544t-0.96 0.704-0.928 0.576-1.024 0.48-0.896 0.16h-0.064q-0.384 0-0.864-0.16t-1.024-0.48-0.96-0.576-0.96-0.704-0.736-0.544q-1.632-1.12-4.704-3.232t-3.648-2.56q-1.12-0.736-2.080-2.048t-0.992-2.464q0-1.376 0.736-2.304t2.112-0.928h26.304q1.152 0 2.016 0.832t0.832 2.016z"></path>
</symbol>
<symbol id="icon-cc" viewBox="0 0 32 32">
<title>cc</title>
<path d="M0 16q0-3.136 1.216-6.112 1.184-2.88 3.52-5.216 4.608-4.672 11.232-4.672 6.688 0 11.424 4.672 2.272 2.272 3.424 5.184 1.184 2.848 1.184 6.144 0 3.328-1.152 6.144-1.152 2.848-3.424 5.088-2.368 2.304-5.312 3.552-3.008 1.216-6.144 1.216-3.104 0-6.080-1.216-2.848-1.184-5.184-3.52t-3.52-5.184-1.184-6.080zM2.88 16q0 2.528 1.024 4.96 0.992 2.4 2.912 4.256 1.92 1.92 4.256 2.848 2.304 0.992 4.96 0.992 2.592 0 4.992-0.992 2.368-0.992 4.352-2.88 3.744-3.648 3.744-9.184 0-2.72-0.992-5.024-0.96-2.432-2.816-4.224-3.84-3.872-9.28-3.872-5.472 0-9.216 3.84-1.888 1.888-2.912 4.288-1.024 2.432-1.024 4.992zM6.88 16q0-2.272 1.344-3.616 1.312-1.344 3.36-1.344 2.944 0 4.256 2.304l-2.144 1.12q-0.352-0.768-0.864-0.992-0.48-0.288-0.928-0.288-2.144 0-2.144 2.816 0 1.248 0.544 2.048 0.576 0.768 1.6 0.768 1.408 0 1.984-1.344l1.984 0.992q-0.672 1.152-1.76 1.824-1.12 0.672-2.464 0.672-2.144 0-3.456-1.312t-1.312-3.648zM16.128 16q0-2.272 1.344-3.616t3.36-1.344q2.976 0 4.224 2.304l-2.112 1.12q-0.352-0.736-0.832-0.992-0.544-0.288-0.96-0.288-2.144 0-2.144 2.816 0 1.312 0.544 2.048 0.544 0.768 1.6 0.768 1.376 0 1.952-1.344l2.016 0.992q-0.704 1.184-1.792 1.824-1.12 0.672-2.4 0.672-2.208 0-3.488-1.312-1.312-1.312-1.312-3.648z"></path>
</symbol>
<symbol id="icon-at" viewBox="0 0 27 32">
<title>at</title>
<path d="M13.312 2.656q5.536 0 9.44 3.904t3.936 9.44v0.832q0 2.080-1.472 3.552t-3.52 1.44q-2.496 0-4-1.984-1.824 1.984-4.384 1.984-2.4 0-4.096-1.728t-1.696-4.096 1.696-4.128 4.096-1.728q1.888 0 3.456 1.152 0.384-1.152 1.568-1.152 0.672 0 1.152 0.512t0.512 1.184v4.992q0 0.672 0.512 1.152t1.184 0.48 1.152-0.48 0.48-1.152v-0.832q0-4.16-2.944-7.104t-7.072-2.912-7.040 2.912-2.944 7.104 2.944 7.072 7.040 2.912q3.136 0 5.664-1.728 0.544-0.384 1.216-0.256t1.088 0.704 0.256 1.248-0.704 1.088q-3.296 2.272-7.52 2.272-5.504 0-9.408-3.904t-3.904-9.408 3.904-9.44 9.408-3.904zM13.312 18.464q1.056 0 1.792-0.736t0.736-1.728-0.736-1.76-1.792-0.736q-0.992 0-1.728 0.736t-0.736 1.76 0.736 1.76 1.728 0.704z"></path>
</symbol>
<symbol id="icon-db-shape" viewBox="0 0 29 32">
<title>db-shape</title>
<path d="M14.4 1.6q8.832 0 11.616 2.816t2.784 11.584q0 8.832-2.784 11.616t-11.616 2.784q-8.768 0-11.584-2.784t-2.816-11.616q0-8.768 2.816-11.584t11.584-2.816z"></path>
</symbol>
<symbol id="icon-menu" viewBox="0 0 27 32">
<title>menu</title>
<path d="M27.424 24v2.272q0 0.48-0.32 0.8t-0.832 0.352h-25.12q-0.48 0-0.8-0.352t-0.352-0.8v-2.272q0-0.48 0.352-0.8t0.8-0.352h25.12q0.48 0 0.832 0.352t0.32 0.8zM27.424 14.848v2.304q0 0.448-0.32 0.8t-0.832 0.32h-25.12q-0.48 0-0.8-0.32t-0.352-0.8v-2.304q0-0.448 0.352-0.8t0.8-0.32h25.12q0.48 0 0.832 0.32t0.32 0.8zM27.424 5.728v2.272q0 0.448-0.32 0.8t-0.832 0.352h-25.12q-0.48 0-0.8-0.352t-0.352-0.8v-2.272q0-0.48 0.352-0.832t0.8-0.32h25.12q0.48 0 0.832 0.32t0.32 0.832z"></path>
</symbol>
<symbol id="icon-moon-fill" viewBox="0 0 32 32">
<path d="M24.633 22.184c-8.188 0-14.82-6.637-14.82-14.82 0-2.695 0.773-5.188 2.031-7.363-6.824 1.968-11.844 8.187-11.844 15.644 0 9.031 7.32 16.355 16.352 16.355 7.457 0 13.68-5.023 15.648-11.844-2.18 1.254-4.672 2.028-7.367 2.028z"></path>
</symbol>
<symbol id="icon-rain-inv" viewBox="0 0 32 32">
<title>rain-inv</title>
<path d="M0 11.008q0-2.88 2.048-4.928t4.96-2.080q0.544 0 0.992 0.064 1.376-1.952 3.488-2.976 2.176-1.056 4.512-1.056t4.48 1.056q2.112 1.024 3.52 2.976 0.416-0.064 0.992-0.064 2.88 0 4.928 2.080t2.048 4.928-2.048 4.928-4.928 2.080q-1.344 0-2.496-0.448-2.816 2.432-6.496 2.432t-6.496-2.432q-1.184 0.448-2.496 0.448-2.88 0-4.96-2.080t-2.048-4.928zM5.984 24q0-1.12 2.016-4l0.512 0.768q0.544 0.832 0.992 1.728 0.48 1.024 0.48 1.504 0 0.8-0.576 1.408t-1.408 0.608-1.408-0.608-0.608-1.408zM14.048 30.016q0-1.12 2.016-4l0.48 0.736q0.576 0.864 1.024 1.76 0.48 1.024 0.48 1.504 0 0.8-0.576 1.408t-1.408 0.576-1.408-0.576-0.608-1.408zM21.984 28q0-1.12 2.016-4l0.48 0.768q0.576 0.832 0.992 1.728 0.512 1.024 0.512 1.504 0 0.8-0.576 1.408t-1.408 0.608-1.408-0.608-0.608-1.408z"></path>
</symbol>
<symbol id="icon-cloud-rain" viewBox="0 0 33 32">
<title>cloud-rain</title>
<path d="M21.696 29.344q-0.704 0-1.184-0.512t-0.512-1.152v-10.016q0-0.672 0.512-1.184t1.184-0.512 1.152 0.512 0.48 1.184v10.016q0 0.672-0.48 1.152t-1.152 0.512zM11.68 29.344q-0.672 0-1.184-0.512t-0.48-1.152v-10.016q0-0.672 0.48-1.184t1.184-0.512 1.152 0.512 0.48 1.184v10.016q0 0.672-0.48 1.152t-1.152 0.512zM16.672 32.672q-0.672 0-1.184-0.512t-0.48-1.184v-9.984q0-0.704 0.48-1.184t1.184-0.48 1.184 0.48 0.48 1.184v9.984q0 0.704-0.48 1.184t-1.184 0.512zM6.688 22.656q-2.752 0-4.736-1.952t-1.952-4.736q0-2.304 1.408-4.096t3.584-2.336v-0.192q0-4.128 2.944-7.072t7.072-2.944q3.232 0 5.792 1.856t3.616 4.832q3.616-0.288 6.272 2.208t2.624 6.112q0 2.816-1.696 5.024t-4.384 2.976q-0.672 0.192-1.28-0.16t-0.8-0.992q-0.192-0.672 0.16-1.28t1.024-0.768q1.632-0.448 2.656-1.76t1.024-3.040q0-2.080-1.472-3.52t-3.552-1.472q-0.704 0-1.344 0.192l-1.792 0.512-0.288-1.824q-0.448-2.4-2.272-3.968t-4.288-1.6q-2.752 0-4.736 1.952t-1.952 4.736q0 0.448 0.16 1.312l0.416 2.016h-2.368q-1.28 0-2.24 0.96t-0.96 2.336q0 1.408 0.96 2.4t2.4 0.96q0.672 0 1.152 0.48t0.48 1.184-0.48 1.184-1.152 0.48z"></path>
</symbol>
<symbol id="icon-cloud-flash" viewBox="0 0 33 32">
<title>cloud-flash</title>
<path d="M24.992 23.488q-0.672 0-1.184-0.48t-0.48-1.184 0.48-1.184 1.184-0.48q2.080 0 3.552-1.44t1.472-3.552-1.472-3.52-3.552-1.472q-0.704 0-1.344 0.192l-1.792 0.512-0.288-1.824q-0.448-2.4-2.272-3.968t-4.288-1.6q-2.752 0-4.736 1.952t-1.952 4.736q0 0.448 0.16 1.312l0.448 2.080-2.4-0.064q-1.28 0-2.24 0.96t-0.96 2.336q0 1.408 0.96 2.4t2.4 0.96q0.672 0 1.152 0.48t0.48 1.184-0.48 1.184-1.152 0.48q-2.752 0-4.736-1.952t-1.952-4.736q0-2.304 1.408-4.096t3.584-2.336v-0.192q0-4.128 2.944-7.072t7.072-2.944q3.232 0 5.792 1.856t3.616 4.832q3.616-0.288 6.272 2.208t2.624 6.112q0 3.456-2.432 5.888t-5.888 2.432zM17.728 16.8l-2.496 5.856 5.024 2.432-7.52 6.72 2.496-5.824-4.992-2.4z"></path>
</symbol>
<symbol id="icon-cloud" viewBox="0 0 33 32">
<title>cloud</title>
<path d="M24.992 27.68h-18.304q-2.752 0-4.736-1.952t-1.952-4.736q0-2.304 1.408-4.096t3.584-2.336v-0.256q0-4.16 2.944-7.072t7.072-2.912q3.2 0 5.76 1.856t3.648 4.864q3.68-0.288 6.272 2.176t2.624 6.112q0 3.424-2.432 5.888t-5.888 2.464zM6.528 17.632q-1.28 0-2.24 0.992t-0.96 2.368 0.96 2.336 2.4 0.992h18.304q2.080 0 3.552-1.472t1.472-3.52-1.472-3.552-3.552-1.472q-0.576 0-1.344 0.256l-1.792 0.512-0.288-1.824q-0.448-2.4-2.272-4t-4.288-1.568q-2.752 0-4.736 1.952t-1.952 4.672q0 0.48 0.16 1.376l0.416 1.984z"></path>
</symbol>
<symbol id="icon-cloud-inv" viewBox="0 0 35 32">
<title>cloud-inv</title>
<path d="M0 20.736q0-3.328 2.368-5.696t5.632-2.368l0.032 0.032q0-0.096 0-0.224t-0.032-0.192q0-3.776 2.656-6.432t6.368-2.656q3.296 0 5.792 2.112t3.072 5.312h0.544q3.744 0 6.4 2.656t2.624 6.432-2.624 6.432-6.4 2.656q-0.256 0-0.384-0.032v0.032h-18.496v-0.032q-3.168-0.16-5.344-2.496t-2.208-5.536z"></path>
</symbol>
<symbol id="icon-cloud-small" viewBox="0 0 30 32">
<title>cloud-small</title>
<path d="M22.016 10.624q2.944 0 5.056 2.080t2.080 5.056-2.080 5.056-5.056 2.112h-14.304q-2.944 0-5.024-2.112t-2.112-5.056 2.112-5.056 5.024-2.080q0.032 0 0.96 0.128 0.96-1.696 2.592-2.688t3.584-0.992q1.92 0 3.616 0.992t2.592 2.688q0.896-0.128 0.96-0.128zM22.016 21.344q1.44 0 2.496-1.056t1.056-2.528-1.056-2.496-2.496-1.056-2.528 1.056-1.056 2.528h-3.584q0-3.552 2.848-5.696-1.056-1.472-2.848-1.472-1.44 0-2.496 1.056t-1.056 2.528q0 0.704 0.224 1.28l-3.328 1.216q-0.48-1.152-0.48-2.432-1.408 0.064-2.464 1.056t-1.088 2.464 1.056 2.496 2.496 1.056h14.304z"></path>
</symbol>
<symbol id="icon-flash" viewBox="0 0 18 32">
<title>flash</title>
<path d="M0 16.16l12.384-14.944q0.096-0.128 0.288-0.128t0.288 0.096q0.192 0.16 0.128 0.416l-3.328 10.976 8.288 3.328-12.32 14.88q-0.096 0.128-0.288 0.16t-0.288-0.096q-0.224-0.192-0.128-0.416l3.328-11.008z"></path>
</symbol>
<symbol id="icon-light-up" viewBox="0 0 20 20">
<title>light-up</title>
<path d="M19 9.199c-0.182 0-0.799 0-0.98 0-0.553 0-1 0.359-1 0.801s0.447 0.799 1 0.799c0.182 0 0.799 0 0.98 0 0.552 0 1-0.357 1-0.799 0-0.441-0.449-0.801-1-0.801zM10 4.5c-3.051 0-5.5 2.449-5.5 5.5s2.449 5.5 5.5 5.5c3.050 0 5.5-2.449 5.5-5.5s-2.451-5.5-5.5-5.5zM10 14c-2.211 0-4-1.791-4-4 0-2.211 1.789-4 4-4 2.209 0 4 1.789 4 4 0 2.209-1.791 4-4 4zM3 10c0-0.441-0.449-0.801-1-0.801-0.185 0-0.816 0-1 0-0.553 0-1 0.359-1 0.801s0.447 0.799 1 0.799c0.184 0 0.815 0 1 0 0.551 0 1-0.358 1-0.799zM10 3c0.441 0 0.799-0.447 0.799-1 0-0.184 0-0.816 0-1 0-0.553-0.358-1-0.799-1s-0.801 0.447-0.801 1c0 0.184 0 0.816 0 1 0 0.553 0.359 1 0.801 1zM10 17c-0.442 0-0.801 0.447-0.801 1 0 0.184 0 0.816 0 1 0 0.553 0.359 1 0.801 1s0.799-0.447 0.799-1c0-0.184 0-0.816 0-1 0-0.553-0.358-1-0.799-1zM17.365 3.766c0.391-0.391 0.454-0.961 0.142-1.273s-0.883-0.248-1.272 0.143c-0.108 0.107-0.593 0.592-0.7 0.699-0.391 0.391-0.454 0.961-0.142 1.273s0.883 0.248 1.273-0.143c0.107-0.108 0.591-0.592 0.699-0.699zM3.334 15.533c-0.108 0.109-0.593 0.594-0.7 0.701-0.391 0.391-0.454 0.959-0.142 1.271s0.883 0.25 1.272-0.141c0.108-0.107 0.593-0.592 0.7-0.699 0.391-0.391 0.454-0.961 0.142-1.274s-0.883-0.247-1.272 0.142zM3.765 2.635c-0.39-0.391-0.961-0.455-1.273-0.143s-0.248 0.883 0.141 1.274c0.108 0.107 0.593 0.592 0.7 0.699 0.391 0.391 0.96 0.455 1.272 0.143s0.249-0.883-0.141-1.273c-0.107-0.108-0.591-0.593-0.699-0.7zM15.534 16.666c0.108 0.107 0.593 0.592 0.7 0.699 0.391 0.391 0.96 0.453 1.272 0.143 0.312-0.312 0.249-0.883-0.142-1.273-0.107-0.107-0.592-0.592-0.699-0.699-0.391-0.391-0.961-0.455-1.274-0.143s-0.248 0.882 0.143 1.273z"></path>
</symbol>
</defs>
</svg>
